<svg width="150" height="150" viewBox="0 0 150 150" fill="none" xmlns="http://www.w3.org/2000/svg">
<path fill-rule="evenodd" clip-rule="evenodd" d="M44.1006 95.6475C49.2234 95.6475 53.3642 96.4095 57.61 97.9602L59.2092 98.5787C61.4439 99.4895 62.7112 102.686 62.0398 105.717C61.9305 106.211 61.7727 106.681 61.5715 107.116L61.131 107.915C57.0875 114.63 54.4864 122.009 52.634 130.634L52.1447 133.083L51.9126 134.537C51.6614 136.521 51.5767 137.919 51.5767 139.319C51.5767 140.105 51.6028 140.883 51.6538 141.651L51.749 142.795C52.0966 146.271 50.3013 149.471 47.7391 149.942C47.5303 149.981 47.3199 150 47.1092 150L7.86749 149.993C3.5224 149.992 0 145.214 0 139.319C0 138.735 0.0353248 138.153 0.105443 137.578L0.236649 136.721C4.60244 113.122 20.9856 95.6475 44.1006 95.6475ZM106.694 95.6475C129.296 95.6475 145.364 111.866 149.571 135.717L149.839 137.355C150.704 143.041 148.007 148.602 143.816 149.776C143.3 149.92 142.776 149.993 142.249 149.993H70.4612C66.1161 149.992 62.5938 145.214 62.5938 139.319C62.5938 138.735 62.6291 138.153 62.6992 137.578L62.8304 136.721C67.1962 113.122 83.5794 95.6475 106.694 95.6475ZM50.5785 1.16571C58.8664 3.85951 66.738 12.9117 66.2764 34.1717L66.2113 36.1383C65.9856 36.6086 69.0785 38.5299 69.0785 44.7143C69.0785 48.8373 68.1227 51.6436 66.2113 53.1331C62.7085 73.85 55.4112 84.2084 44.3195 84.2084C33.2278 84.2084 25.2904 73.85 20.5071 53.1331C18.71 52.0645 17.8115 49.2582 17.8115 44.7143C17.8115 40.1705 18.71 37.3118 20.5071 36.1383C20.6983 18.958 23.5836 9.15074 29.1631 6.71656C31.3778 5.75631 33.4733 5.75631 35.4493 6.71656C37.4479 0.387307 42.4909 -1.46298 50.5785 1.16571ZM131.714 17.8596C137.274 30.8381 138.306 46.6909 134.81 65.4183C134.557 67.3629 135.472 68.9241 137.557 70.1017L137.83 70.2426L138.173 70.3966C138.945 70.7247 139.376 71.8406 139.134 72.889C139.065 73.1867 138.947 73.4561 138.789 73.6773L138.525 73.9706C135.082 76.957 125.15 77.1779 119.387 75.6306C115.578 81.1455 111.415 83.903 106.898 83.903C102.381 83.903 98.1717 81.1455 94.2709 75.6306C83.3584 74.4491 77.9022 63.3571 77.9022 42.3545C77.9022 23.1267 83.5956 10.4896 94.9825 4.44327C96.9456 3.40084 99.1011 3.22543 101.142 3.94196L102.653 4.47244C113.222 -4.46741 122.909 -0.00502047 131.714 17.8596Z" fill="#020202"/>
</svg>
